<svg class="icon" viewBox="0 0 1024 1024" xmlns="http://www.w3.org/2000/svg" width="128" height="128"><path d="M1023.63 218.132c-3.584-31.51-29.929-57.361-65-63.878a1707.181 1707.181 0 0 1-210.227-42.815A809.796 809.796 0 0 1 560.558 14.32c-29.987-19.093-70.42-19.093-100.406 0-54.108 44.281-118.79 77.257-189.197 96.489a781.63 781.63 0 0 1-204.442 44.67c-35.85 5.12-62.699 31.82-64.28 63.925 0 0-2.187 160.413-2.187 301.606C0 776.663 340.939 1024 511.489 1024s459.43-174.478 505.636-499.096c11.58-191.728 6.506-306.772 6.506-306.772zM795.09 365.637a.275.275 0 0 1-.31.114L453.956 706.587a30.456 30.456 0 0 1-2.875 2.566 34.362 34.362 0 0 1-46.034-2.29L229.801 531.615a34.362 34.362 0 0 1 0-48.587 34.362 34.362 0 0 1 48.588 0l150.986 150.94 316.817-316.828a34.434 34.434 0 0 1 48.897 48.496z"/></svg>